<svg width="18" height="18" viewBox="0 0 18 18" fill="none" xmlns="http://www.w3.org/2000/svg">
<path fill-rule="evenodd" clip-rule="evenodd" d="M9 2.25C5.27208 2.25 2.25 5.27208 2.25 9C2.25 12.7279 5.27208 15.75 9 15.75C12.7279 15.75 15.75 12.7279 15.75 9C15.75 5.27208 12.7279 2.25 9 2.25ZM0.75 9C0.75 4.44365 4.44365 0.75 9 0.75C13.5563 0.75 17.25 4.44365 17.25 9C17.25 13.5563 13.5563 17.25 9 17.25C4.44365 17.25 0.75 13.5563 0.75 9ZM7.5 6C7.91421 6 8.25 6.33579 8.25 6.75V11.25C8.25 11.6642 7.91421 12 7.5 12C7.08579 12 6.75 11.6642 6.75 11.25V6.75C6.75 6.33579 7.08579 6 7.5 6ZM11.25 6.75C11.25 6.33579 10.9142 6 10.5 6C10.0858 6 9.75 6.33579 9.75 6.75V11.25C9.75 11.6642 10.0858 12 10.5 12C10.9142 12 11.25 11.6642 11.25 11.25V6.75Z" fill="#E8E8E8"/>
</svg>
