<svg width="16" height="16" viewBox="0 0 16 16" fill="none" xmlns="http://www.w3.org/2000/svg">
<path fill-rule="evenodd" clip-rule="evenodd" d="M8.00004 1.33325C8.36823 1.33325 8.66671 1.63173 8.66671 1.99992V8.39044L10.862 6.19518C11.1223 5.93483 11.5444 5.93483 11.8048 6.19518C12.0651 6.45553 12.0651 6.87764 11.8048 7.13799L8.47145 10.4713C8.2111 10.7317 7.78899 10.7317 7.52864 10.4713L4.1953 7.13799C3.93495 6.87764 3.93495 6.45553 4.1953 6.19518C4.45565 5.93483 4.87776 5.93483 5.13811 6.19518L7.33337 8.39044V1.99992C7.33337 1.63173 7.63185 1.33325 8.00004 1.33325ZM2.00004 9.33325C2.36823 9.33325 2.66671 9.63173 2.66671 9.99992V12.6666C2.66671 12.8434 2.73695 13.013 2.86197 13.138C2.98699 13.263 3.15656 13.3333 3.33337 13.3333H12.6667C12.8435 13.3333 13.0131 13.263 13.1381 13.138C13.2631 13.013 13.3334 12.8434 13.3334 12.6666V9.99992C13.3334 9.63173 13.6319 9.33325 14 9.33325C14.3682 9.33325 14.6667 9.63173 14.6667 9.99992V12.6666C14.6667 13.197 14.456 13.7057 14.0809 14.0808C13.7058 14.4559 13.1971 14.6666 12.6667 14.6666H3.33337C2.80294 14.6666 2.29423 14.4559 1.91916 14.0808C1.54409 13.7057 1.33337 13.197 1.33337 12.6666V9.99992C1.33337 9.63173 1.63185 9.33325 2.00004 9.33325Z" fill="#DCDBE1"/>
</svg>
