<svg width="16" height="16" viewBox="0 0 16 16" fill="none" xmlns="http://www.w3.org/2000/svg">
<path fill-rule="evenodd" clip-rule="evenodd" d="M12.4714 4.47132C12.7318 4.21097 12.7318 3.78886 12.4714 3.52851C12.2111 3.26816 11.789 3.26816 11.5286 3.52851L8.00004 7.05711L4.47145 3.52851C4.2111 3.26816 3.78899 3.26816 3.52864 3.52851C3.26829 3.78886 3.26829 4.21097 3.52864 4.47132L7.05723 7.99992L3.52864 11.5285C3.26829 11.7889 3.26829 12.211 3.52864 12.4713C3.78899 12.7317 4.2111 12.7317 4.47145 12.4713L8.00004 8.94273L11.5286 12.4713C11.789 12.7317 12.2111 12.7317 12.4714 12.4713C12.7318 12.211 12.7318 11.7889 12.4714 11.5285L8.94285 7.99992L12.4714 4.47132Z" fill="#DCDBE1"/>
</svg>
