<svg width="16" height="16" viewBox="0 0 16 16" fill="none" xmlns="http://www.w3.org/2000/svg">
<path fill-rule="evenodd" clip-rule="evenodd" d="M6 0.666748C5.26362 0.666748 4.66667 1.2637 4.66667 2.00008H4C3.46957 2.00008 2.96086 2.21079 2.58579 2.58587C2.21071 2.96094 2 3.46965 2 4.00008V13.3334C2 13.8638 2.21071 14.3726 2.58579 14.7476C2.96086 15.1227 3.46957 15.3334 4 15.3334H12C12.5304 15.3334 13.0391 15.1227 13.4142 14.7476C13.7893 14.3726 14 13.8638 14 13.3334V4.00008C14 3.46965 13.7893 2.96094 13.4142 2.58587C13.0391 2.21079 12.5304 2.00008 12 2.00008H11.3333C11.3333 1.2637 10.7364 0.666748 10 0.666748H6ZM11.3333 3.33341C11.3333 4.06979 10.7364 4.66675 10 4.66675H6C5.26362 4.66675 4.66667 4.06979 4.66667 3.33341H4C3.82319 3.33341 3.65362 3.40365 3.5286 3.52868C3.40357 3.6537 3.33333 3.82327 3.33333 4.00008V13.3334C3.33333 13.5102 3.40357 13.6798 3.5286 13.8048C3.65362 13.9298 3.82319 14.0001 4 14.0001H12C12.1768 14.0001 12.3464 13.9298 12.4714 13.8048C12.5964 13.6798 12.6667 13.5102 12.6667 13.3334V4.00008C12.6667 3.82327 12.5964 3.6537 12.4714 3.52868C12.3464 3.40365 12.1768 3.33341 12 3.33341H11.3333ZM6 2.66675V3.33341H10V2.66675V2.00008H6V2.66675Z" fill="#DCDBE1"/>
</svg>
